<?xml version="1.0" encoding="utf-8"?>
<!-- Generator: Adobe Illustrator 22.0.1, SVG Export Plug-In . SVG Version: 6.00 Build 0)  -->
<svg version="1.1" id="Layer_1" xmlns="http://www.w3.org/2000/svg" xmlns:xlink="http://www.w3.org/1999/xlink" x="0px" y="0px"
	 viewBox="0 0 724.7 143.1" style="enable-background:new 0 0 724.7 143.1;" xml:space="preserve">
<style type="text/css">
	.st0{enable-background:new    ;}
	.st1{fill:#4294D3;}
	.st2{fill:#21BDF0;}
	.st3{fill:none;stroke:#21BDF0;stroke-width:6;stroke-linecap:round;}
</style>
<title>Fabio</title>
<g class="st0">
	<path class="st1" d="M304.4,140V38.6H401v11.2h-82.9v32.3h79.7v11.2h-79.7V140H304.4z"/>
	<path class="st1" d="M482.4,140v-7.1h-0.3c-0.8,1.6-1.8,2.9-2.8,4c-1,1.1-2.5,1.9-4.3,2.6c-1.8,0.7-4.2,1.1-7.1,1.3
		c-2.9,0.2-6.7,0.4-11.3,0.4h-28.8c-4.6,0-8.3-0.5-11.3-1.5c-2.9-1-5.3-2.4-7-4.2c-1.7-1.8-2.9-4.1-3.6-6.7c-0.7-2.7-1-5.7-1-9v-4.8
		c0-4,0.7-7.2,2.1-9.7s3.5-4.3,6.2-5.5c2.8-1.3,6.2-2.1,10.2-2.5c4.1-0.4,8.7-0.6,13.9-0.6h19.3c3.9,0,7.3,0.1,10,0.3
		s5.1,0.7,7.1,1.3c2,0.7,3.6,1.5,4.9,2.7s2.5,2.5,3.5,4.2h0.3V91.8c0-3.2-0.5-5.7-1.5-7.7c-1-2-2.6-3.4-4.8-4.4c-2.2-1-5-1.6-8.3-2
		c-3.4-0.3-7.3-0.5-11.9-0.5h-17.6c-3.8,0-6.9,0.2-9.2,0.6c-2.3,0.4-4.2,1-5.5,1.9c-1.3,0.8-2.2,1.8-2.7,3c-0.5,1.2-0.7,2.5-0.7,4
		v2.5h-12v-3.5c0-3.3,0.5-6.1,1.6-8.4c1.1-2.3,2.8-4.2,5.2-5.7c2.4-1.4,5.5-2.5,9.2-3.2c3.8-0.7,8.4-1,13.8-1h19
		c5.6,0,10.7,0.3,15.3,0.8c4.6,0.6,8.6,1.7,11.8,3.5c3.3,1.8,5.8,4.3,7.6,7.5c1.8,3.2,2.7,7.5,2.7,12.8V140H482.4z M482.4,120.8
		v-3.2c0-2.4-0.6-4.4-1.7-5.8c-1.1-1.4-2.8-2.6-5-3.4c-2.2-0.8-5.1-1.3-8.5-1.5c-3.4-0.2-7.4-0.4-12-0.4h-18.5
		c-3.9,0-7.1,0.2-9.7,0.5c-2.5,0.3-4.5,0.9-6.1,1.8s-2.6,2-3.2,3.4c-0.6,1.4-0.9,3.3-0.9,5.5v2.2c0,2,0.2,3.7,0.7,5.1
		c0.5,1.4,1.4,2.6,2.8,3.6c1.4,0.9,3.4,1.6,5.9,2s5.8,0.6,9.9,0.6h16c5.4,0,10.1-0.1,13.9-0.4s7-0.7,9.4-1.5
		c2.4-0.8,4.1-1.9,5.2-3.2C481.8,124.9,482.4,123.1,482.4,120.8z"/>
	<path class="st1" d="M504.5,140V38.6h12v39.5h0.3c1.3-3.7,3.7-6.4,7.2-8.1c3.5-1.7,8.7-2.5,15.6-2.5H558c7.3,0,13.3,0.5,18.1,1.6
		c4.8,1.1,8.7,2.8,11.6,5.3c2.9,2.5,5,5.7,6.2,9.6c1.2,3.9,1.8,8.7,1.8,14.4V111c0,6.2-0.9,11.2-2.7,15.1c-1.8,3.9-4.4,7-7.6,9.2
		c-3.3,2.2-7.2,3.7-11.8,4.6c-4.6,0.8-9.6,1.3-15,1.3h-16.8c-6.3,0-11.8-1-16.4-2.9s-7.7-5.1-9.5-9.5h-0.3V140H504.5z M583.7,110.9
		v-14c0-4.1-0.5-7.4-1.5-10c-1-2.6-2.6-4.5-4.6-6c-2.1-1.4-4.6-2.4-7.8-2.9c-3.1-0.5-6.7-0.8-10.9-0.8h-16.2c-4.1,0-7.8,0.2-11,0.7
		c-3.2,0.5-6,1.4-8.2,2.8c-2.2,1.4-4,3.4-5.2,6c-1.2,2.6-1.8,6.1-1.8,10.4v13.6c0,3.3,0.4,6.2,1.2,8.8c0.8,2.6,2.1,4.7,3.9,6.4
		s4.2,3.1,7.3,4s6.8,1.4,11.3,1.4h19.6c4.9,0,8.8-0.4,12-1.3c3.1-0.8,5.6-2.1,7.3-3.8c1.8-1.7,3-3.8,3.6-6.4
		S583.7,114.3,583.7,110.9z"/>
	<path class="st1" d="M605.7,51.8V38.6h12v13.2H605.7z M605.7,140V68.6h12V140H605.7z"/>
	<path class="st1" d="M628.5,112.1V96.5c0-5.9,1-10.7,2.9-14.4s4.7-6.7,8.2-8.9s7.7-3.7,12.5-4.5c4.9-0.8,10.1-1.2,15.8-1.2h17.2
		c5.7,0,11,0.4,15.8,1.2c4.9,0.8,9,2.3,12.5,4.5s6.2,5.2,8.2,8.9s2.9,8.5,2.9,14.4v15.7c0,5.9-1,10.7-2.9,14.4
		c-2,3.7-4.7,6.7-8.2,8.9s-7.7,3.7-12.5,4.5c-4.9,0.8-10.1,1.2-15.8,1.2H668c-5.7,0-11-0.4-15.8-1.2c-4.9-0.8-9-2.3-12.5-4.5
		s-6.2-5.2-8.2-8.9C629.5,122.8,628.5,118,628.5,112.1z M712.7,111.4V97.2c0-4.2-0.6-7.6-1.8-10.2c-1.2-2.6-2.8-4.6-4.9-6
		c-2.1-1.4-4.6-2.4-7.6-2.9c-2.9-0.5-6.1-0.8-9.6-0.8h-24.5c-3.5,0-6.8,0.3-9.7,0.8c-2.9,0.5-5.4,1.5-7.5,2.9
		c-2.1,1.4-3.7,3.5-4.9,6c-1.2,2.6-1.8,6-1.8,10.2v14.3c0,4.2,0.6,7.6,1.8,10.1s2.8,4.6,4.9,6c2.1,1.4,4.6,2.4,7.5,2.9
		c2.9,0.5,6.1,0.8,9.7,0.8h24.5c3.5,0,6.6-0.3,9.6-0.8c2.9-0.5,5.5-1.5,7.6-2.9c2.1-1.4,3.7-3.5,4.9-6S712.7,115.6,712.7,111.4z"/>
</g>
<path class="st1" d="M106,0h60c5.5,0,10,4.5,10,10v20c0,5.5-4.5,10-10,10h-60c-5.5,0-10-4.5-10-10V10C96,4.5,100.5,0,106,0z"/>
<path class="st1" d="M10,104h60c5.5,0,10,4.5,10,10v20c0,5.5-4.5,10-10,10H10c-5.5,0-10-4.5-10-10v-20C0,108.5,4.5,104,10,104z"/>
<path class="st1" d="M106,104h60c5.5,0,10,4.5,10,10v20c0,5.5-4.5,10-10,10h-60c-5.5,0-10-4.5-10-10v-20C96,108.5,100.5,104,106,104
	z"/>
<path class="st2" d="M202,104h60c5.5,0,10,4.5,10,10v20c0,5.5-4.5,10-10,10h-60c-5.5,0-10-4.5-10-10v-20
	C192,108.5,196.5,104,202,104z"/>
<line class="st3" x1="136" y1="48" x2="136" y2="96"/>
<line class="st3" x1="40" y1="80" x2="40" y2="96"/>
<line class="st3" x1="232" y1="80" x2="232" y2="96"/>
<line class="st3" x1="80" y1="64" x2="192" y2="64"/>
<line class="st3" x1="80" y1="64" x2="40" y2="80"/>
<line class="st3" x1="192" y1="64" x2="232" y2="80"/>
</svg>
