<?xml version="1.0" standalone="no"?>
<!DOCTYPE svg PUBLIC "-//W3C//DTD SVG 20010904//EN"
 "http://www.w3.org/TR/2001/REC-SVG-20010904/DTD/svg10.dtd">
<svg version="1.0" xmlns="http://www.w3.org/2000/svg"
 width="300.000000pt" height="300.000000pt" viewBox="0 0 300.000000 300.000000"
 preserveAspectRatio="xMidYMid meet">
<metadata>
Created by potrace 1.11, written by Peter Selinger 2001-2013
</metadata>
<g transform="translate(0.000000,300.000000) scale(0.100000,-0.100000)"
fill="#000000" stroke="none">
<path d="M1154 2209 c-43 -22 -54 -59 -54 -188 0 -209 -16 -201 399 -201 209
0 328 4 344 11 46 21 57 56 57 189 0 133 -11 168 -57 189 -31 14 -659 14 -689
0z"/>
<path d="M1483 1763 c-9 -3 -13 -29 -13 -79 l0 -74 -268 0 -267 0 -210 -84
-210 -84 -3 -100 c-3 -95 -1 -101 18 -107 12 -4 25 -4 28 0 4 4 9 43 12 87 l5
81 185 73 185 74 263 0 262 0 0 -155 c0 -130 3 -157 15 -161 8 -4 22 -1 30 6
12 10 15 42 15 161 l0 149 263 0 262 0 185 -74 185 -74 5 -80 c3 -44 8 -83 12
-87 3 -4 16 -4 28 0 19 6 21 12 18 107 l-3 100 -210 84 -210 84 -267 0 -267 0
-3 77 c-3 79 -10 91 -45 76z"/>
<path d="M194 1169 c-43 -22 -54 -59 -54 -189 0 -133 11 -168 57 -189 16 -7
135 -11 344 -11 415 0 399 -8 399 200 0 208 17 200 -402 199 -195 0 -331 -4
-344 -10z"/>
<path d="M1154 1169 c-43 -22 -54 -59 -54 -189 0 -133 11 -168 57 -189 33 -15
653 -15 686 0 46 21 57 56 57 189 0 133 -11 168 -57 189 -31 14 -659 14 -689
0z"/>
<path d="M2108 1163 c-41 -25 -48 -54 -48 -184 0 -131 11 -167 57 -188 16 -7
135 -11 344 -11 415 0 399 -8 399 201 0 131 -11 167 -57 188 -16 7 -135 11
-346 11 -282 0 -325 -3 -349 -17z"/>
</g>
</svg>
